<svg xmlns="http://www.w3.org/2000/svg" viewBox="0 0 64 64" role="img" aria-label="PathForge icon">
  <defs>
    <linearGradient id="bg" x1="0" y1="0" x2="1" y2="1">
      <stop offset="0%" stop-color="#0f172a"/>
      <stop offset="100%" stop-color="#1e293b"/>
    </linearGradient>
    <linearGradient id="path" x1="0" y1="0" x2="1" y2="1">
      <stop offset="0%" stop-color="#38bdf8"/>
      <stop offset="100%" stop-color="#22c55e"/>
    </linearGradient>
  </defs>

  <rect x="2" y="2" width="60" height="60" rx="14" fill="url(#bg)"/>

  <g stroke="#334155" stroke-width="2">
    <path d="M16 12v40"/>
    <path d="M28 12v40"/>
    <path d="M40 12v40"/>
    <path d="M52 12v40"/>
    <path d="M12 16h40"/>
    <path d="M12 28h40"/>
    <path d="M12 40h40"/>
    <path d="M12 52h40"/>
  </g>

  <circle cx="16" cy="48" r="4" fill="#22c55e"/>
  <circle cx="48" cy="16" r="4" fill="#ef4444"/>

  <path d="M16 48L28 48L28 36L40 36L40 24L48 24L48 16" fill="none" stroke="url(#path)" stroke-width="4" stroke-linecap="round" stroke-linejoin="round"/>
  <path d="M44 14L48 10L52 14" fill="none" stroke="#38bdf8" stroke-width="3" stroke-linecap="round" stroke-linejoin="round"/>
</svg>
